<?xml version="1.0" encoding="UTF-8"?> <svg xmlns="http://www.w3.org/2000/svg" id="Layer_1" data-name="Layer 1" width="643.24" height="849.58" viewBox="0 0 643.24 849.58"><defs><style>.cls-1{fill:#fdfdfd;}.cls-2{fill:#272626;}.cls-3{fill:#fbfbfb;}.cls-4{fill:#2d2b2b;}.cls-5{fill:#771332;}.cls-6{fill:#fafafa;}.cls-7{fill:#2e2829;}.cls-8{fill:#2d2d2d;}.cls-9{fill:#eee;}.cls-10{fill:#302e2f;}.cls-11{fill:#313031;}.cls-12{fill:#f7f6f6;}.cls-13{fill:#4a4a4a;}.cls-14{fill:#b29471;}.cls-15{fill:#f6f6f6;}.cls-16{fill:#f6f5f6;}.cls-17{fill:#f5f5f5;}.cls-18{fill:#b39471;}.cls-19{fill:#f9f8f8;}.cls-20{fill:#f8f8f8;}.cls-21{fill:#f4f4f4;}.cls-22{fill:#b09372;}.cls-23{fill:#ab8f71;}.cls-24{fill:#f9f9f9;}</style></defs><path class="cls-1" d="M1.93,0c-.09,2-.2,3.33-.2,4.63q-.34,98.75-.67,197.5-.29,85-.57,170c-.1,27.49-.93,55-.19,82.47.85,31.37,6.47,62.18,14.35,92.54,13.43,51.73,34.54,100,65.19,143.94a381.52,381.52,0,0,0,66.58,73.23c47.08,39.83,101.22,65.94,160.22,82.83,10.28,2.94,20,3.63,30.05-.22,5.56-2.13,11.41-3.5,17.11-5.27a411.66,411.66,0,0,0,108.53-51.42c54.82-36.77,97-84.88,127.8-143.16a452.64,452.64,0,0,0,36-91.49C636.54,517.89,643,479.68,643,440.42q-.06-217,.22-434V0Z"></path><path class="cls-2" d="M1.93,0H643.24V6.4q-.13,217-.22,434c0,39.26-6.48,77.47-16.85,115.16a452.64,452.64,0,0,1-36,91.49c-30.76,58.28-73,106.39-127.8,143.16A411.66,411.66,0,0,1,353.8,841.65c-5.7,1.77-11.55,3.14-17.11,5.27-10.07,3.85-19.77,3.16-30.05.22-59-16.89-113.14-43-160.22-82.83a381.52,381.52,0,0,1-66.58-73.23c-30.65-43.92-51.76-92.21-65.19-143.94C6.77,516.78,1.15,486,.3,454.6c-.74-27.47.09-55,.19-82.47q.3-85,.57-170,.33-98.74.67-197.5C1.73,3.33,1.84,2,1.93,0ZM14.52,152.12c-.09,2-.21,3.47-.22,4.94-.11,18.33-.24,36.66-.29,55-.2,70.83-.22,141.66-.63,212.48-.15,25.55.47,51,4.81,76.2,7.48,43.55,20,85.48,39.08,125.43C80,673.65,110.42,715.28,150,750.08c47.45,41.72,102.7,68.57,163.32,85,4.13,1.12,9,1.74,13,.73a420.06,420.06,0,0,0,77-27.41q107-50.14,166.68-152.15c22.87-39.11,38.73-81,48.87-125.09,6-26,10.73-52.3,10.81-79.06.32-98.82.23-197.65.27-296.48,0-1.12-.2-2.24-.33-3.5Zm.3-14h615V13.22h-615Z"></path><path class="cls-3" d="M14.52,152.12H629.67c.13,1.26.33,2.38.33,3.5,0,98.83,0,197.66-.27,296.48-.08,26.76-4.83,53-10.81,79.06-10.14,44.08-26,86-48.87,125.09q-59.65,102-166.68,152.15a420.06,420.06,0,0,1-77,27.41c-4.05,1-8.9.39-13-.73-60.62-16.43-115.87-43.28-163.32-85-39.58-34.8-70-76.43-92.73-123.92-19.1-39.95-31.6-81.88-39.08-125.43-4.34-25.23-5-50.65-4.81-76.2.41-70.82.43-141.65.63-212.48.05-18.33.18-36.66.29-55C14.31,155.59,14.43,154.11,14.52,152.12ZM210.8,640.32l2.19-.08q3.58,10.18,7.15,20.37c.37.91.73,1.83,1.1,2.74,4.86,13.28,9.36,26.69,14.66,39.78,8.11,20,17.86,39.23,33.92,54.2,32,29.78,81.16,20.24,98.71-18.88,13.23-29.5-9.14-63.91-41.46-63.44-7.12.1-14.23,1.43-21.35,2.2a39,39,0,0,1-24.23-5.09l66.92-135.24c62.12,29.2,125.86-.23,151.31-47.74,13.7-25.57,17.66-52.63,11-80.81-8.2-34.73-28.93-60.06-60.37-76.64a11.37,11.37,0,0,1,.5-1.76q24.38-49.23,48.85-98.41a6.4,6.4,0,0,1,3.51-3.05c16.09-4.49,32.37-8,49.23-6.9,10.54.69,20.89,2.5,29.75,8.83,2.86,2,5.2,4.81,8.43,7.86,0-17.22-.23-33.5.14-49.76.11-5-1.57-8.24-5.71-10.54a74.65,74.65,0,0,0-6.6-3.52c-12.55-5.39-25.75-6.57-39.19-5.61-31.45,2.25-60.43,13-88.23,27-30.75,15.44-62.9,20.71-96.93,16.83-31.84-3.63-62-13.47-92.19-23.56-26.66-8.91-53.33-17.83-80.25-25.91-15.82-4.75-32.28-7.89-48.78-3.77-9.28,2.32-18.11,6.43-27.14,9.74-1.52-.47-3.69-2.17-3,1.58l-1,.25c-1.31-.23-2.74-.92-3.91-.6-2,.54-3.78,1.7-6.3,2.91l2.75,2.15.59,4.84-5.73,4.24c-3.81-1.5-7.55-4-11.42-4.26-7.09-.42-14.28.37-21.4,1a16.24,16.24,0,0,0-6.46,2.41c-8.12,4.78-8.61,13.1-.92,18.48,2.34,1.64,5.62,1.89,8.2,3.26,3.54,1.88,7.43,3.68,10,6.54,2.33,2.56,3.43,6.41,4.54,9.86,19.29,59.71,37.86,119.65,57.88,179.11,22.14,65.78,45.58,131.13,68.46,196.67q5.57,16,11.12,32l-1.72,2.9c-8.78-16.33-22.13-26.2-40.72-28.33a51.06,51.06,0,0,0-54.84,37.49c-6.58,24.45,5.81,50.41,28.81,60.35A51.53,51.53,0,0,0,205,682.05C213.14,669,213.94,654.93,210.8,640.32ZM330.72,664.2c11.91,1.51,22.87,5.12,32,13.43,11.79,10.74,18.66,23.9,20.39,39.74-.21,3.19-.41,6.37-.71,11,10.93-9.38,20.8-17.53,30.32-26.07C472.61,648.57,518.92,585,550.29,510.77A542,542,0,0,0,591.64,338.1c2.23-30.63,2.4-61.28-1.81-91.8-.23-1.7-1.25-4-2.61-4.75-16.9-8.93-34.41-10-52.72-3.68,8.87,28.43,12.76,57.24,13.59,86.5,1.2,42.59-5,84.07-19.67,124.13-21.8,59.6-59.07,108-107.88,147.94-30.84,25.23-64.63,45.78-100.5,63-2.41,1.16-4.71,2.55-7.07,3.83l.43,1.79Z"></path><path class="cls-3" d="M14.82,138.09V13.22h615V138.09Zm518-40.73c-11.64-2.93-13.76-14.9-7.94-22.6,4.13-5.48,9.76-6.2,16-5.51l9.79,4.4,2.59-6.1H541.82c-4.47-.08-9-.5-13.4-.17-9.18.7-15.42,8.62-14.93,18.42.42,8.55,5.54,13,15.34,13.33,1.32.05,2.65-.1,4-.16,3.78-.09,7.57-.44,11.33-.21,5.42.32,6.89-3,7.59-6.19Zm54-31-14.61,3.33v-16H563V98h7.14c2.65-20,5.73-25.43,16.74-29.95,5.16-.32,8.57,2,10.43,6.78,2,5,0,9.14-3,12.95-4.4,5.77-10.38,9-17.64,10.05a6.73,6.73,0,0,0,2.84.53c8,0,16,.15,24-.16,1.47-.06,2.87-2,4.3-3.1l-.71-.86-11.84,1.31c3.24-3.3,7.09-6.24,9.65-10.05,3.27-4.87,3.17-10.45-.23-15.51-3.27-4.87-8.23-5.07-13.39-4.38C589.79,65.77,588.33,66.08,586.86,66.35Zm-362.06,2c4.68-.81,8.56.24,11.12,4.6s2.26,8.79-.75,12.61a39,39,0,0,1-8.83,8.58c-3,2-6.8,2.61-11.27,4.2,9.87,0,18.68.15,27.48-.13,1.64-.06,3.23-1.83,4.84-2.81l-.54-1.08-12,1c3.18-2.79,6.19-4.73,8.27-7.4,3.92-5,5.18-10.81,1.9-16.78-3.16-5.78-8.51-6.31-14.28-5.56-2,.25-3.93.64-5.89,1L211.67,69.8V53.15l-9.56.56c3.06,15.22,1.2,29.81-.5,44.24h8.16C210.63,77.71,216,74,224.8,68.33Zm190,.91c-1,.59-2,1.15-3,1.76a14.87,14.87,0,0,0-6.69,16.85c1.59,6.39,6.27,10.22,13.42,10.52a129,129,0,0,0,15-.14A17.82,17.82,0,0,0,450,84.43c2.07-9.22-.35-14.5-8.88-19.43-4.76-2.75-9.78-5.13-14.18-8.36-6.7-4.93-14-3.61-21.29-3.11,4,2.19,8.09,3.95,12.15,5.81s8.09,3.84,12.13,5.76a41.34,41.34,0,0,0-4.88.78c-2.1.59-4.12,1.46-6.17,2.2l-1.93.39Zm-18.91-2.47a71,71,0,0,1-9.06.5c-5.29-.35-10.54-1.44-15.83-1.68a19.15,19.15,0,0,0-19.79,20.33c.48,8,5.19,13,13.1,12.58,7.5-.37,14.94-1.87,22.9-2.94.08.2.61,1.67,1.18,3.25l7.5-.79Zm107.19-.12c-2.65.25-5.59.9-8.48.72-5.12-.32-10.2-1.29-15.33-1.72C471.21,65,465,68.39,461,75.3c-3.28,5.65-3.8,11.87-.44,17.66,3.18,5.49,8.72,6.3,14.47,5.51,6.46-.88,12.89-2.08,19.43-3.15,1.08,4.17,1.08,4.17,8.7,2.32ZM80,67.39c-4.26-.32-8.6-.67-12.94-1s-9-.94-13.45-.84a19.19,19.19,0,0,0-17.64,13.9c-2.76,9.65,1.82,18.45,10.44,18.93,8,.44,16,.35,23.31-3.93.36-.21.91-.08,1.42-.1l1.08,4.42L80,98.11ZM96.57,98c0-2.47-.12-4.45,0-6.41.64-8.82,3.44-16.62,11.13-21.8,4-2.7,9.73-2.49,13.13.14a11.19,11.19,0,0,1,3.51,13c-2.76,7.55-8.62,11.51-16.14,13.4-1.56.39-3.13.7-4.7,1a187.73,187.73,0,0,0,24.67.71c1.77-.06,3.5-1.6,5.25-2.45l-.59-1.37-9.23.92a12.84,12.84,0,0,1,3.61-3.1c5.09-3.57,8-12.2,6.14-18.33-1.59-5.4-6-8.13-14-7.69-7,.39-14,1.51-21.28,2.35-1.77-4.9-6.45-1-9.27-1.86V98ZM255.2,65.75V98h8.49V89.07c6.88-.77,11.79,2.34,16.3,6.16,6.27,5.3,12.85,2.36,19.46,1.85l-17.6-8.6c3.94-3.76,7.85-6.27,10-9.85,4.22-6.91-.2-13.87-8.22-13.29-5.76.41-11.46,1.74-17.18,2.64a7.61,7.61,0,0,1-2.79.17C260.74,67.42,257.84,66.51,255.2,65.75Zm-93.68-3.48V98.68c7.36-.41,15.15-.56,22.87-1.39,3.81-.41,7.17-2.89,7.2-7.09,0-2.47-1.65-5-2.92-7.37-.5-.91-2-1.27-3.18-2,2-1.28,3.81-2.22,5.38-3.42,3.23-2.46,4.54-5.66,3.18-9.66S189.73,62,185.66,62a55.87,55.87,0,0,0-6.47.36c-2.94.31-5.87,1.09-8.8,1.08S164.58,62.7,161.52,62.27ZM311.41,86.89l1.39-1.54c9.16,0,18.32.09,27.47-.08,1.82,0,3.63-1.07,5.45-1.65l-.42-1.49h-9.24c.8-.75,1.08-1.16,1.46-1.34,3.9-1.83,6.3-4.76,5.12-9.13s-4.84-5.66-9-5.71a123.85,123.85,0,0,0-12.49.14c-11.44,1-18.73,10.85-16.59,22.18,1.28,6.78,5.17,10.22,12,10.36,5.5.11,11-.08,16.5,0,4.27.09,6.21-2.19,7.28-7.07-4.16,1.53-7.54,3.39-11.1,3.91s-7.58.58-10.56-.88S313.8,89.55,311.41,86.89Zm5.42-27.25c9.24,1.65,14.53-6.06,21.88-9.06C329.36,48.58,323.73,55.51,316.83,59.64Z"></path><path class="cls-4" d="M94.92,180.28c-.2-1.61-.4-3.23-.59-4.84l7.46-4.46.95-.26c1-.53,2-1.05,3-1.57,9-3.31,17.86-7.42,27.14-9.74,16.5-4.12,33-1,48.78,3.77,26.92,8.08,53.59,17,80.25,25.91,30.18,10.09,60.35,19.93,92.19,23.56,34,3.88,66.18-1.39,96.93-16.83,27.8-13.95,56.78-24.74,88.23-27,13.44-1,26.64.22,39.19,5.61a74.65,74.65,0,0,1,6.6,3.52c4.14,2.3,5.82,5.51,5.71,10.54-.37,16.26-.14,32.54-.14,49.76-3.23-3-5.57-5.82-8.43-7.86-8.86-6.33-19.21-8.14-29.75-8.83-16.86-1.1-33.14,2.41-49.23,6.9a6.4,6.4,0,0,0-3.51,3.05q-24.52,49.16-48.85,98.41a11.37,11.37,0,0,0-.5,1.76c31.44,16.58,52.17,41.91,60.37,76.64,6.66,28.18,2.7,55.24-11,80.81-25.45,47.51-89.19,76.94-151.31,47.74L281.49,672.12a39,39,0,0,0,24.23,5.09c7.12-.77,14.23-2.1,21.35-2.2,32.32-.47,54.69,33.94,41.46,63.44-17.55,39.12-66.74,48.66-98.71,18.88-16.06-15-25.81-34.19-33.92-54.2-5.3-13.09-9.8-26.5-14.66-39.78-.37-.91-.73-1.83-1.1-2.74q-3.57-10.18-7.15-20.37-1.87-5.34-3.77-10.69L198.1,597.6c-22.88-65.54-46.32-130.89-68.46-196.67-20-59.46-38.59-119.4-57.88-179.11-1.11-3.45-2.21-7.3-4.54-9.86-2.6-2.86-6.49-4.66-10-6.54-2.58-1.37-5.86-1.62-8.2-3.26-7.69-5.38-7.2-13.7.92-18.48a16.24,16.24,0,0,1,6.46-2.41c7.12-.64,14.31-1.43,21.4-1,3.87.23,7.61,2.76,11.42,4.26,2.73,4.91,6.2,9.56,8.06,14.79,4.52,12.62,8.18,25.55,12.38,38.28q15.74,47.67,31.67,95.26c2.48,7.41,5.18,14.74,8.16,23.17,22.15-44.15,43.71-87.11,65.63-130.81-11.33-2.75-22.16-5.18-32.89-8-19.8-5.25-38.25-2.29-55.63,8.38-4.73,2.9-9.71,5.38-14.81,8.19-.51-1.48-.79-2.25-1-3Q102.82,205.5,94.92,180.28Zm372.6,228.34,1.13.4c-.06-.41-.11-.82-.17-1.23a10,10,0,0,0-.33-1.46c-15.95-40.58-64.28-58.77-102.92-38.66a70.36,70.36,0,0,0-23.58,19.26,9.11,9.11,0,0,0,1.94.22c26.93-4.23,53.59-2.14,79.61,5.17C438.31,396.57,452.77,403.11,467.52,408.62Zm-89.3-149.33.2,1.42c13-1.83,26.13-2.92,38.89-5.75,9.4-2.08,18.4-6.21,27.41-9.84,7.43-3,14.5-6.88,21.94-9.88s15.64-4.87,22.95-8.37c9.81-4.69,20.18-7,30.6-9.41,3.31-.77,6.65-2,10-2,16.72-.21,33.66-1.94,49.44,5.92,2.6,1.29,4.2.47,4.2-2.61,0-10.16.1-20.33-.15-30.49a7.07,7.07,0,0,0-2.61-4.83c-6.86-5-15.14-7-23.18-7.78-13.36-1.35-26.95-1.11-40.15,2a240.17,240.17,0,0,0-25.49,7.82c-11,3.94-21.86,8.27-32.66,12.71-10.52,4.33-20.71,9.5-31.38,13.38A170.72,170.72,0,0,1,400.56,219a147.52,147.52,0,0,1-26,2c-8.49,0-17-1.19-25.47-1.87a8.42,8.42,0,0,1-1-.14c-6.67-1.26-13.37-2.38-20-3.81-7-1.52-14-3.17-20.87-5.09-7.51-2.09-14.9-4.6-22.37-6.84-6-1.8-12.2-3.11-18.06-5.29-8.65-3.21-16.94-7.4-25.63-10.46-10.86-3.83-21.94-7.06-33-10.32-7.52-2.22-15.15-4-22.72-6.06-7.24-1.93-14.41-5.26-21.71-5.55-15.5-.63-31.41-2.78-46,5.4-3.37,1.89-7.48,2.54-10.7,4.62-2.12,1.38-4.83,4.54-4.53,6.48.88,5.66,3.1,11.13,4.85,16.65,2.13,6.7,4.45,13.33,6.4,20.08,1.07,3.69,2.73,4.57,6.25,3,9.27-4.21,18.31-9.39,28-12.11,14-3.95,28.36-.63,42.25,2.17,11.16,2.26,22,6.19,32.94,9.37,5.44,1.58,10.93,3,16.29,4.79,8.73,2.94,17.31,6.28,26.05,9.17C271,237,276.6,238.07,282,239.8c9.68,3.09,19.16,6.85,28.94,9.57,9.1,2.52,18.45,4.23,27.75,5.95,8.46,1.57,17,2.9,25.52,3.88C368.84,259.73,373.55,259.29,378.22,259.29Zm-12,132.08c-5.85.66-16.12,1.65-26.32,3.13a8.88,8.88,0,0,0-5.84,3.73c-8,14.61-11,30.29-8.23,46.8a10.06,10.06,0,0,0,4.21,6c16.88,10.52,35.48,16.64,54.81,20.72,23.68,5,47.46,6.37,71.48,2.53,4.71-.75,7.28-3,9.21-7.08,6-12.45,8.23-25.47,7.69-39.27-.26-6.51-2.86-10.07-8.43-13.08C435.42,399,403.77,392.57,366.25,391.37ZM235.79,685.24l1.6.25c4-6,7.68-12.38,12.23-18,5.45-6.74,6.35-12.08,1.29-20.32-13.67-22.25-21.09-47.4-29.92-71.78-25.3-69.79-50.12-139.74-75.12-209.64-2.44-6.81-4.85-13.63-7.33-20.61l-19.66,6.38Q177.59,519.09,235.79,685.24Zm-21.87-148L348.46,264.11c-4.46-.77-8.34-1-11.88-2.16-4.51-1.52-6.39.15-8.31,4.08q-40.47,82.79-81.21,165.42Q228,470.21,208.88,509c-1.13,2.31-2.95,5.2-2.4,7.27C208.28,522.89,211,529.3,213.92,537.2ZM324.36,259.56c-3.95-.94-7.33-1.35-10.38-2.58-3.83-1.54-5.5-.32-7.22,3.19C294.63,284.82,282.28,309.37,270,334q-36.83,73.74-73.65,147.48c-.58,1.16-1.5,2.67-1.18,3.66,2.22,6.85,4.73,13.59,7.58,21.6C243.65,423.56,283.86,341.87,324.36,259.56ZM191.77,476.07l111-222.13-16.88-5.05c-.93,1.79-1.7,3.23-2.42,4.69Q270,280.94,256.54,308.29q-35.45,71.93-70.85,143.85c-.68,1.38-1.23,3.31-.8,4.65C186.79,462.79,189.08,468.66,191.77,476.07ZM334.35,681.15c-5.64.26-10.4.47-15.16.72-8.58.45-17.15,1.12-25.73,1.28-2.73,0-4,.7-4.4,3.3-.59,4.11-1.14,8.22-1.82,12.32-2.8,16.72-5.7,33.43-8.4,50.17-.53,3.29-1.6,6.8,2.45,9.29,11.22,6.93,23.24,10.51,36.49,10,4.79-.18,6.78-2,7.29-7.06,1.9-18.85,4.35-37.66,6.57-56.48C332.53,697.17,333.37,689.64,334.35,681.15ZM181.2,446.5l98.31-199.66c-4-1.38-7.42-2.3-10.6-3.67s-4.45-.7-6,2.47q-43.71,88.92-87.67,177.73c-.61,1.23-1.18,2.94-.8,4.12C176.36,433.47,178.62,439.35,181.2,446.5Zm62-211.88c-.79,1.36-1.53,2.45-2.1,3.62Q203,316,165,393.83c-.5,1-1.41,2.33-1.14,3.19,2.05,6.5,4.35,12.91,7,20.58,29.68-60.15,58.65-118.84,87.76-177.84ZM478.28,451c-8.67,32.36-28.86,52.46-60.34,61.65,4.76,6.81,9.39,13.12,13.63,19.67,2,3.09,3.85,3.65,7.31,2.26q35.85-14.51,54.8-48.1a94.79,94.79,0,0,0,11.22-30.73ZM160.62,388.22l76.14-155.84-15.25-4.85c-.65,1.06-1,1.6-1.32,2.19q-33.28,66.2-66.51,132.43c-.56,1.12-1.18,2.66-.85,3.71C155.12,372.89,157.66,379.83,160.62,388.22ZM444,366.3c26.68,19.75,38.24,45.68,35.5,78.38l26.36,4.57c6.3-38.35-11.8-79.27-39.34-98.72ZM318.9,423l-25.8-4.57c-2.11,10.84-1.75,21.09-.2,31.33q5.94,39.31,35.76,65.62c1,.92,3.38,1.84,4.16,1.33,7.26-4.8,14.32-9.91,21.78-15.18C327.86,481.81,316,456,318.9,423Zm1.14-6.43c8.44-32.06,28.6-52.21,60.12-61.56-4.68-6.66-9.17-12.65-13.17-19-2.1-3.3-4.06-3.32-7.37-2-25,10.12-43.68,27.19-55.95,51-4.27,8.31-6.93,17.44-10.52,26.69Zm10,42.65c3.85,21.05,30.28,43.2,56.47,47.94,28.79,5.22,57.8-9.43,69-25.92Q389.39,489.17,330.08,459.18ZM275.74,669.05c22.67-45.79,44.79-90.46,67-135.34l-13.84-9.35c-2.22,4.48-4.33,8.76-6.46,13q-28.59,57.44-57.14,114.9c-.64,1.31-1.31,3.58-.68,4.37C267.88,660.75,271.57,664.5,275.74,669.05ZM224,564.73a33.44,33.44,0,0,0,2.08-3q29.05-58.62,58.05-117.29a13.22,13.22,0,0,0,1.21-4.72c.79-9.44,1.44-18.89,2.21-28.33.24-3,.69-6,1-9-2.86,3.32-4.46,6.89-6.19,10.39q-31.87,64.77-63.75,129.53c-.69,1.41-1.51,3.31-1.1,4.61C219.42,552.72,221.69,558.39,224,564.73Zm88.08-56.22a10.17,10.17,0,0,0-1.29,1.6q-29.73,60-59.36,120a5.45,5.45,0,0,0-.31,4.17c2.37,4.91,5.09,9.65,8.17,15.36l64.27-129.07ZM286.63,455a13.25,13.25,0,0,0-1.16,1.53q-28.52,57.48-57,115c-.48,1-1,2.35-.69,3.26,2.26,6.54,4.74,13,7.43,20.27,1.08-1.68,1.78-2.56,2.26-3.54q27.5-55.47,54.88-111a7.22,7.22,0,0,0,.65-4.65C291.11,469.08,288.9,462.33,286.63,455Zm10.74,31.29a8.34,8.34,0,0,0-1.21,1.36q-28.31,57-56.56,114.07c-.43.87-1,2-.75,2.81,2.33,6.44,4.84,12.82,7.34,19.32,1-.54,1.17-.58,1.23-.7q29.55-59.46,59-119a5,5,0,0,0-.3-4C303.45,495.62,300.49,491.21,297.37,486.32Zm194-252.85-.87-1.06c-5.2,2-10.55,3.72-15.53,6.18a15.08,15.08,0,0,0-6.58,6c-11,21.48-21.66,43.11-32.4,64.71-2.34,4.69-4.55,9.45-6.91,14.36l15.13,5.11Q467.84,280.91,491.33,233.47ZM372.44,266.39c-4.73-.42-8.58-.5-12.34-1.15s-5.49.79-7.14,4.18c-13,26.79-26.27,53.46-39.44,80.17-2.36,4.79-4.66,9.61-7,14.42l1.11.85c1.22-1.1,2.45-2.19,3.65-3.31,7-6.6,14.11-13.12,21-19.85,2.54-2.48,5.17-5.15,6.81-8.24,5.39-10.13,10.35-20.49,15.45-30.78C360.44,290.78,366.3,278.86,372.44,266.39Zm88.45-21.72c-7.62,3.55-14,6.24-20.07,9.48a15,15,0,0,0-6.15,5.79c-9.35,18.36-18.4,36.87-27.52,55.34-.69,1.4-1.22,2.87-1.92,4.51,4.79.63,9,.81,13,1.82,3.33.84,4.65-.29,6-3.1,8.62-17.62,17.41-35.15,26.14-52.71ZM70.72,186.35c-3.29.26-8.38.12-13.17,1.26-2.66.62-4.82,3.37-7.2,5.16L57.27,199a.83.83,0,0,0,.48.11c9.66.62,14.85,6.88,18,15,2.46,6.32,4.1,13,6,19.51s1.76,6.48,7.77,4.12c2.62-1,5.2-2.21,7.88-3.1,2.93-1,3.8-2.38,2.72-5.55-3.34-9.74-6.19-19.65-9.5-29.4C87.05,189.29,82.61,186.17,70.72,186.35ZM347.33,331.81c7.17-2.57,13.26-4.53,19.14-7a11,11,0,0,0,5.21-4.6c7.22-14.07,14.16-28.28,21.17-42.45,2-4,3.85-7.95,6.09-12.58-5.33.38-9.79,1-14.22.91-3.63-.07-5.63,1.06-7.22,4.45-5.07,10.86-10.52,21.54-15.82,32.28C357.07,312.15,352.44,321.48,347.33,331.81Zm31.15-10.29c5.69-.52,10.66-.71,15.52-1.56a8.07,8.07,0,0,0,5.13-3.39c3.71-6.67,7-13.61,10.35-20.47,5.94-12,11.84-24.11,18.1-36.87-6,1.45-11.4,2.44-16.55,4.09-2.2.7-4.77,2.35-5.78,4.3-6.67,12.82-13,25.84-19.37,38.81C383.49,311.27,381.12,316.14,378.48,321.52Zm5.23,219.4c15,1.64,29.26,1.61,44-2.92-5.51-7.91-10.58-15.26-15.76-22.55a3.56,3.56,0,0,0-2.42-1.36c-6.93-.1-13.86-.06-21-.06C386.84,523.19,385.33,531.78,383.71,540.92ZM337,521.9c12.55,8.87,25.6,14.79,40.42,17.66l4.55-26.12c-6.74-2.66-13-5.18-19.37-7.59a3.52,3.52,0,0,0-2.75.08C352.31,511.07,344.89,516.33,337,521.9Zm84-193.24c-1.63,9.28-3.1,17.67-4.47,25.5,6.91,2.76,13,5.25,19.19,7.6,1,.37,2.5.61,3.23.11,7.47-5.09,14.83-10.33,22.64-15.84C448.8,337.44,435.85,331.52,421,328.66Zm-49.78,2.11c5,7.1,9.86,14.18,14.88,21.16a4.07,4.07,0,0,0,2.75,1.59c6.95.13,13.89.07,21.16.07,1.55-8.84,3-17.28,4.51-25.68C403.62,325,380.8,326.46,371.18,330.77ZM350,752.94c19.94-17.65,19.85-45.35,5.53-57.14C353.74,714.71,351.94,733.34,350,752.94ZM303.49,373.05,301.67,372q-1.92,4.23-3.86,8.45l1.29.7Zm-6.8,10.33c-.36.63-.71,1-.71,1.35s.43.55.68.82c.26-.33.68-.65.75-1S297,383.91,296.69,383.38Zm-1.23,5c-.14-.24-.24-.62-.43-.68s-.51.18-.77.28l.58.93Z"></path><path class="cls-5" d="M383.1,717.37c-1.73-15.84-8.6-29-20.39-39.74-9.12-8.31-20.08-11.92-32-13.43.78-1.07,1.35-2.44,2.38-3.18,9.64-6.92,20.91-11,30.83-17.45,8.68-5.68,17.77-10.73,26.29-16.61,9-6.25,18.09-12.51,26.87-19.19,13.22-10.06,25-21.59,37.06-32.81,2.26-2.1,3.89-4.87,6-7.14,5.89-6.27,12.18-12.18,17.75-18.7,5.9-6.92,11.24-14.31,16.65-21.63,4.14-5.6,8.51-11.12,11.86-17.18,6.21-11.22,12.39-22.55,17.41-34.33,6.64-15.55,12.78-31.39,17.92-47.49,3.76-11.76,6-24.07,8.13-36.27a327,327,0,0,0,4.76-38.14,343.15,343.15,0,0,0-3.79-72c-1.08-6.78-2.51-13.51-3.83-20.25-1.29-6.59-2.63-13.16-4.08-20.36,11.87-.34,23.47-1.4,34.58,2.26,2.94,1,6.44,3.21,6.63,8.16.45,11.75,2.46,23.46,2.48,35.19,0,14.84,1,29.66-1.44,44.58-2.85,17.41-2.84,35.31-5.76,52.71-3.46,20.6-8.17,41-13.4,61.28a414.6,414.6,0,0,1-14.27,43.49c-6,15.82-12.62,31.49-20,46.75-6.49,13.52-14.29,26.41-21.59,39.53-1.55,2.79-3.47,5.37-5.21,8q-7.14,10.93-14.27,21.86c-5.91.78-6.27,5.43-6.9,9.9-.58.3-1.34.45-1.71.91-6.51,8.2-12.81,16.58-19.49,24.63-7,8.41-14.07,16.78-21.61,24.68q-15.36,16.08-31.56,31.37c-7.23,6.85-15.05,13.09-22.71,19.49C385.86,717,384.33,717,383.1,717.37Z"></path><path class="cls-6" d="M94.92,180.28q7.89,25.23,15.8,50.45c.25.77.53,1.54,1,3,5.1-2.81,10.08-5.29,14.81-8.19,17.38-10.67,35.83-13.63,55.63-8.38,10.73,2.85,21.56,5.28,32.89,8-21.92,43.7-43.48,86.66-65.63,130.81-3-8.43-5.68-15.76-8.16-23.17q-15.9-47.61-31.67-95.26c-4.2-12.73-7.86-25.66-12.38-38.28-1.86-5.23-5.33-9.88-8.06-14.79Z"></path><path class="cls-7" d="M490.74,605.31q7.14-10.92,14.27-21.86c1.74-2.67,3.66-5.25,5.21-8,7.3-13.12,15.1-26,21.59-39.53,7.33-15.26,13.92-30.93,20-46.75A414.6,414.6,0,0,0,566,445.64c5.23-20.24,9.94-40.68,13.4-61.28,2.92-17.4,2.91-35.3,5.76-52.71,2.45-14.92,1.48-29.74,1.44-44.58,0-11.73-2-23.44-2.48-35.19-.19-4.95-3.69-7.19-6.63-8.16-11.11-3.66-22.71-2.6-34.58-2.26,1.45,7.2,2.79,13.77,4.08,20.36,1.32,6.74,2.75,13.47,3.83,20.25a343.15,343.15,0,0,1,3.79,72,327,327,0,0,1-4.76,38.14c-2.1,12.2-4.37,24.51-8.13,36.27-5.14,16.1-11.28,31.94-17.92,47.49-5,11.78-11.2,23.11-17.41,34.33-3.35,6.06-7.72,11.58-11.86,17.18-5.41,7.32-10.75,14.71-16.65,21.63-5.57,6.52-11.86,12.43-17.75,18.7-2.12,2.27-3.75,5-6,7.14-12.09,11.22-23.84,22.75-37.06,32.81-8.78,6.68-17.82,12.94-26.87,19.19-8.52,5.88-17.61,10.93-26.29,16.61C354,650.05,342.74,654.1,333.1,661c-1,.74-1.6,2.11-2.38,3.18l-17.32.85-.43-1.79c2.36-1.28,4.66-2.67,7.07-3.83,35.87-17.21,69.66-37.76,100.5-63,48.81-39.93,86.08-88.34,107.88-147.94,14.65-40.06,20.87-81.54,19.67-124.13-.83-29.26-4.72-58.07-13.59-86.5,18.31-6.33,35.82-5.25,52.72,3.68,1.36.72,2.38,3,2.61,4.75,4.21,30.52,4,61.17,1.81,91.8a542,542,0,0,1-41.35,172.67C518.92,585,472.61,648.57,412.71,702.33c-9.52,8.54-19.39,16.69-30.32,26.07.3-4.66.5-7.84.71-11,1.23-.34,2.76-.34,3.66-1.08,7.66-6.4,15.48-12.64,22.71-19.49q16.15-15.28,31.56-31.37c7.54-7.9,14.62-16.27,21.61-24.68,6.68-8,13-16.43,19.49-24.63.37-.46,1.13-.61,1.71-.91Z"></path><path class="cls-8" d="M210.8,640.32c3.14,14.61,2.34,28.63-5.8,41.73A51.53,51.53,0,0,1,140.75,702c-23-9.94-35.39-35.9-28.81-60.35a51.06,51.06,0,0,1,54.84-37.49c18.59,2.13,31.94,12,40.72,28.33ZM201.59,636c-7.66-19.42-31.68-30.28-53.28-23.72-21.42,6.5-35.42,29.11-30.78,50.06a5.48,5.48,0,0,0,3.67,3.34c15.86,2.53,29.47-.48,39.63-14.58,3.16-4.4,8.72-8.06,13.94-9.74C183.32,638.57,192.47,637.69,201.59,636Zm-80.75,36.8a4.46,4.46,0,0,0,.16,1.44,25.15,25.15,0,0,0,1.63,3.08c9.84,15.85,24,23.35,42.71,22.22,25.34-1.54,45.27-27.26,40.08-52-.29-1.39-2-3.52-3.1-3.54-14.88-.32-29.42.29-39.41,14.13-7.08,9.82-17,14.64-29.18,14.63Z"></path><path class="cls-9" d="M210.8,640.32l-3.3-7.86,1.72-2.91q1.89,5.34,3.77,10.69Z"></path><path class="cls-6" d="M101.79,171l-7.46,4.46-2.75-2.15c2.52-1.21,4.33-2.37,6.3-2.91C99.05,170.06,100.48,170.75,101.79,171Z"></path><path class="cls-6" d="M105.74,169.15c-1,.52-2,1-3,1.57C102.05,167,104.22,168.68,105.74,169.15Z"></path><path class="cls-9" d="M220.14,660.61c.37.91.73,1.83,1.1,2.74C220.87,662.44,220.51,661.52,220.14,660.61Z"></path><path class="cls-10" d="M429.88,65.1c-4-1.92-8.06-3.89-12.13-5.76s-8.17-3.62-12.15-5.81c7.33-.5,14.59-1.82,21.29,3.11,4.4,3.23,9.42,5.61,14.18,8.36C449.6,69.93,452,75.21,450,84.43a17.82,17.82,0,0,1-16.41,13.8,129,129,0,0,1-15,.14c-7.15-.3-11.83-4.13-13.42-10.52A14.87,14.87,0,0,1,411.83,71c1-.61,2-1.17,3-1.76l2.07-.77,1.93-.39,5.48.43c-2.38,1.85-4.17,3-5.73,4.5-6.16,5.81-6.81,13.95-1.67,20.06,4.24,5.05,11.27,5.42,17.47.92,7.07-5.14,10-14.15,5.72-19.91C437.44,70.53,433.34,68.06,429.88,65.1Z"></path><path class="cls-10" d="M395.92,66.77V98l-7.5.79c-.57-1.58-1.1-3-1.18-3.25-8,1.07-15.4,2.57-22.9,2.94-7.91.38-12.62-4.63-13.1-12.58A19.15,19.15,0,0,1,371,65.59c5.29.24,10.54,1.33,15.83,1.68A71,71,0,0,0,395.92,66.77Zm-20,1.42c-6.06,0-13.65,5.94-15.58,12.12-1.84,5.91-.31,10.79,4.42,14,4.45,3.07,9.37,2.78,14-1.72a33.82,33.82,0,0,0,7.2-9.94C389.51,74.75,384.71,68.13,375.94,68.19Z"></path><path class="cls-10" d="M503.11,66.65v31c-7.62,1.85-7.62,1.85-8.7-2.32-6.54,1.07-13,2.27-19.43,3.15-5.75.79-11.29,0-14.47-5.51-3.36-5.79-2.84-12,.44-17.66,4-6.91,10.26-10.31,18.35-9.65,5.13.43,10.21,1.4,15.33,1.72C497.52,67.55,500.46,66.9,503.11,66.65Zm-36.39,17c-.13,5.9,2.25,9.63,6.25,11.06,3,1.09,7.4,1.14,10.21-.26,5.62-2.81,9-8,10.93-14.18,1.28-4.17-.15-7.08-3.28-9.54a11.58,11.58,0,0,0-13.09-1.26C471.47,72.64,467.3,77.54,466.72,83.67Z"></path><path class="cls-8" d="M80,67.39V98.11l-7.78.68-1.08-4.42c-.51,0-1.06-.11-1.42.1-7.27,4.28-15.35,4.37-23.31,3.93-8.62-.48-13.2-9.28-10.44-18.93a19.19,19.19,0,0,1,17.64-13.9c4.47-.1,9,.51,13.45.84S75.71,67.07,80,67.39Zm-36.35,18c-.22,4.14,2.25,7.32,6.06,9.54s8,2,11.13-.92a54.16,54.16,0,0,0,8.8-10.54c1.92-3,3.27-6.67.52-10.22a12.17,12.17,0,0,0-11.77-5C51,69.17,43.64,77.36,43.62,85.4Z"></path><path class="cls-11" d="M96.57,98H88.8V66.56c2.82.86,7.5-3,9.27,1.86,7.29-.84,14.26-2,21.28-2.35,8-.44,12.43,2.29,14,7.69,1.82,6.13-1.05,14.76-6.14,18.33a12.84,12.84,0,0,0-3.61,3.1l9.23-.92.59,1.37c-1.75.85-3.48,2.39-5.25,2.45a187.73,187.73,0,0,1-24.67-.71c1.57-.35,3.14-.66,4.7-1,7.52-1.89,13.38-5.85,16.14-13.4a11.19,11.19,0,0,0-3.51-13c-3.4-2.63-9.13-2.84-13.13-.14-7.69,5.18-10.49,13-11.13,21.8C96.45,93.51,96.57,95.49,96.57,98Z"></path><path class="cls-11" d="M255.2,65.75c2.64.76,5.54,1.67,8.49,2.4a7.61,7.61,0,0,0,2.79-.17c5.72-.9,11.42-2.23,17.18-2.64,8-.58,12.44,6.38,8.22,13.29-2.18,3.58-6.09,6.09-10,9.85l17.6,8.6c-6.61.51-13.19,3.45-19.46-1.85-4.51-3.82-9.42-6.93-16.3-6.16V98H255.2ZM263.57,87c7.53-.12,14-1.63,18.94-7,2.57-2.79,4.27-6.07,1.26-9.76s-6.7-3.69-10.22-1.45C267.21,72.81,263.11,78.34,263.57,87Z"></path><path class="cls-10" d="M161.52,62.27c3.06.43,6,1.17,8.87,1.17s5.86-.77,8.8-1.08a55.87,55.87,0,0,1,6.47-.36c4.07,0,7,1.8,8.39,5.78s0,7.2-3.18,9.66c-1.57,1.2-3.35,2.14-5.38,3.42,1.2.7,2.68,1.06,3.18,2,1.27,2.33,2.94,4.9,2.92,7.37,0,4.2-3.39,6.68-7.2,7.09-7.72.83-15.51,1-22.87,1.39Zm8,17.53c7.73.81,13.68-1.34,15.28-6.2.73-2.23.19-5.83-1.27-7.51-1.07-1.22-5.07-1.18-6.92-.17C171.41,68.73,169,73.5,169.48,79.8Zm-.46,7c-.06,6.64,2.15,9.66,6.65,9.57,4-.08,7.86-3.85,7.75-7.65s-3.33-6.26-8.55-6.37C171.4,82.23,168.24,82.34,169,86.76Z"></path><path class="cls-12" d="M429.88,65.1c3.46,3,7.56,5.43,10.22,9,4.31,5.76,1.35,14.77-5.72,19.91-6.2,4.5-13.23,4.13-17.47-.92C411.77,87,412.42,78.82,418.58,73c1.56-1.46,3.35-2.65,5.73-4.5l-5.48-.43c2.05-.74,4.07-1.61,6.17-2.2A41.34,41.34,0,0,1,429.88,65.1Z"></path><path class="cls-11" d="M311.41,86.89c2.39,2.66,4.32,6.26,7.29,7.73s7.1,1.39,10.56.88,6.94-2.38,11.1-3.91c-1.07,4.88-3,7.16-7.28,7.07-5.5-.11-11,.08-16.5,0-6.82-.14-10.71-3.58-12-10.36-2.14-11.33,5.15-21.21,16.59-22.18A123.85,123.85,0,0,1,333.67,66c4.13,0,7.81,1.4,9,5.71s-1.22,7.3-5.12,9.13c-.38.18-.66.59-1.46,1.34h9.24l.42,1.49c-1.82.58-3.63,1.61-5.45,1.65-9.15.17-18.31.08-27.47.08Zm.8-3.92c6.59,1,15.86-.91,19-4.88,1.47-1.84,2.4-5.42,1.58-7.37-.66-1.58-4.4-2.82-6.63-2.62C319.68,68.7,313,76.24,312.21,83Z"></path><path class="cls-10" d="M224.8,68.33C216,74,210.63,77.71,209.77,98h-8.16c1.7-14.43,3.56-29,.5-44.24l9.56-.56V69.8l13.13-3.31Z"></path><path class="cls-10" d="M586.86,68c-11,4.52-14.09,10-16.74,29.95H563V53.65h9.27v16l14.61-3.33Z"></path><path class="cls-11" d="M224.8,68.33V66.49c2-.33,3.92-.72,5.89-1,5.77-.75,11.12-.22,14.28,5.56,3.28,6,2,11.73-1.9,16.78-2.08,2.67-5.09,4.61-8.27,7.4l12-1,.54,1.08c-1.61,1-3.2,2.75-4.84,2.81-8.8.28-17.61.13-27.48.13,4.47-1.59,8.31-2.24,11.27-4.2a39,39,0,0,0,8.83-8.58c3-3.82,3.33-8.22.75-12.61S229.48,67.52,224.8,68.33Z"></path><path class="cls-8" d="M586.86,68V66.35c1.47-.27,2.93-.58,4.41-.78,5.16-.69,10.12-.49,13.39,4.38,3.4,5.06,3.5,10.64.23,15.51-2.56,3.81-6.41,6.75-9.65,10.05l11.84-1.31.71.86c-1.43,1.08-2.83,3-4.3,3.1-8,.31-16,.16-24,.16a6.73,6.73,0,0,1-2.84-.53c7.26-1.07,13.24-4.28,17.64-10.05,2.92-3.81,4.93-8,3-12.95C595.43,70.05,592,67.69,586.86,68Z"></path><path class="cls-8" d="M532.8,99c-1.32.06-2.65.21-4,.16-9.8-.31-14.92-4.78-15.34-13.33-.49-9.8,5.75-17.72,14.93-18.42,4.44-.33,8.93.09,13.4.17l-1,1.7c-6.2-.69-11.83,0-16,5.51-5.82,7.7-3.7,19.67,7.94,22.6C532.82,97.89,532.81,98.43,532.8,99Z"></path><path class="cls-11" d="M316.83,59.64c6.9-4.13,12.53-11.06,21.88-9.06C331.36,53.58,326.07,61.29,316.83,59.64Z"></path><path class="cls-13" d="M532.8,99c0-.54,0-1.08,0-1.61l18.88-4.79c-.7,3.16-2.17,6.51-7.59,6.19C540.37,98.53,536.58,98.88,532.8,99Z"></path><path class="cls-2" d="M540.86,69.25l1-1.7h11.42l-2.59,6.1Z"></path><path class="cls-12" d="M416.9,68.47l-2.07.77Z"></path><path class="cls-5" d="M378.22,259.29c-4.67,0-9.38.44-14-.09-8.55-1-17.06-2.31-25.52-3.88-9.3-1.72-18.65-3.43-27.75-5.95-9.78-2.72-19.26-6.48-28.94-9.57-5.42-1.73-11.06-2.79-16.47-4.58-8.74-2.89-17.32-6.23-26.05-9.17-5.36-1.8-10.85-3.21-16.29-4.79-11-3.18-21.78-7.11-32.94-9.37-13.89-2.8-28.22-6.12-42.25-2.17-9.7,2.72-18.74,7.9-28,12.11-3.52,1.6-5.18.72-6.25-3-2-6.75-4.27-13.38-6.4-20.08-1.75-5.52-4-11-4.85-16.65-.3-1.94,2.41-5.1,4.53-6.48,3.22-2.08,7.33-2.73,10.7-4.62,14.62-8.18,30.53-6,46-5.4,7.3.29,14.47,3.62,21.71,5.55,7.57,2,15.2,3.84,22.72,6.06,11,3.26,22.12,6.49,33,10.32,8.69,3.06,17,7.25,25.63,10.46,5.86,2.18,12.05,3.49,18.06,5.29,7.47,2.24,14.86,4.75,22.37,6.84,6.9,1.92,13.87,3.57,20.87,5.09,6.63,1.43,13.33,2.55,20,3.81a8.42,8.42,0,0,0,1,.14c8.49.68,17,1.87,25.47,1.87a147.52,147.52,0,0,0,26-2,170.72,170.72,0,0,0,27.66-7.48c10.67-3.88,20.86-9.05,31.38-13.38,10.8-4.44,21.66-8.77,32.66-12.71a240.17,240.17,0,0,1,25.49-7.82c13.2-3.11,26.79-3.35,40.15-2,8,.81,16.32,2.81,23.18,7.78a7.07,7.07,0,0,1,2.61,4.83c.25,10.16.16,20.33.15,30.49,0,3.08-1.6,3.9-4.2,2.61-15.78-7.86-32.72-6.13-49.44-5.92-3.34,0-6.68,1.25-10,2-10.42,2.42-20.79,4.72-30.6,9.41-7.31,3.5-15.4,5.32-22.95,8.37s-14.51,6.88-21.94,9.88c-9,3.63-18,7.76-27.41,9.84-12.76,2.83-25.91,3.92-38.89,5.75Z"></path><path class="cls-3" d="M366.25,391.37c37.52,1.2,69.17,7.66,98.58,23.52,5.57,3,8.17,6.57,8.43,13.08.54,13.8-1.73,26.82-7.69,39.27-1.93,4-4.5,6.33-9.21,7.08-24,3.84-47.8,2.45-71.48-2.53-19.33-4.08-37.93-10.2-54.81-20.72a10.06,10.06,0,0,1-4.21-6c-2.76-16.51.19-32.19,8.23-46.8a8.88,8.88,0,0,1,5.84-3.73C350.13,393,360.4,392,366.25,391.37Z"></path><path class="cls-14" d="M235.79,685.24q-58.33-166.5-116.91-333.72l19.66-6.38c2.48,7,4.89,13.8,7.33,20.61,25,69.9,49.82,139.85,75.12,209.64,8.83,24.38,16.25,49.53,29.92,71.78,5.06,8.24,4.16,13.58-1.29,20.32-4.55,5.62-8.19,12-12.23,18Z"></path><path class="cls-15" d="M213.92,537.2c-2.89-7.9-5.64-14.31-7.44-21-.55-2.07,1.27-5,2.4-7.27q19-38.79,38.18-77.5Q287.73,348.77,328.27,266c1.92-3.93,3.8-5.6,8.31-4.08,3.54,1.19,7.42,1.39,11.88,2.16Z"></path><path class="cls-16" d="M324.36,259.56c-40.5,82.31-80.71,164-121.61,247.13-2.85-8-5.36-14.75-7.58-21.6-.32-1,.6-2.5,1.18-3.66Q233.16,407.67,270,334c12.28-24.58,24.63-49.13,36.76-73.78,1.72-3.51,3.39-4.73,7.22-3.19C317,258.21,320.41,258.62,324.36,259.56Z"></path><path class="cls-17" d="M191.77,476.07c-2.69-7.41-5-13.28-6.88-19.28-.43-1.34.12-3.27.8-4.65q35.35-72,70.85-143.85,13.47-27.35,26.89-54.71c.72-1.46,1.49-2.9,2.42-4.69l16.88,5.05Z"></path><path class="cls-18" d="M334.35,681.15c-1,8.49-1.82,16-2.71,23.55-2.22,18.82-4.67,37.63-6.57,56.48-.51,5.07-2.5,6.88-7.29,7.06-13.25.5-25.27-3.08-36.49-10-4.05-2.49-3-6-2.45-9.29,2.7-16.74,5.6-33.45,8.4-50.17.68-4.1,1.23-8.21,1.82-12.32.38-2.6,1.67-3.26,4.4-3.3,8.58-.16,17.15-.83,25.73-1.28C324,681.62,328.71,681.41,334.35,681.15Z"></path><path class="cls-17" d="M181.2,446.5c-2.58-7.15-4.84-13-6.77-19-.38-1.18.19-2.89.8-4.12q43.83-88.87,87.67-177.73c1.56-3.17,2.93-3.81,6-2.47s6.57,2.29,10.6,3.67Z"></path><path class="cls-16" d="M243.19,234.62l15.46,5.14c-29.11,59-58.08,117.69-87.76,177.84-2.65-7.67-4.95-14.08-7-20.58-.27-.86.64-2.16,1.14-3.19Q203,316,241.09,238.24C241.66,237.07,242.4,236,243.19,234.62Z"></path><path class="cls-19" d="M478.28,451l26.62,4.75a94.79,94.79,0,0,1-11.22,30.73q-18.94,33.64-54.8,48.1c-3.46,1.39-5.3.83-7.31-2.26-4.24-6.55-8.87-12.86-13.63-19.67C449.42,503.46,469.61,483.36,478.28,451Z"></path><path class="cls-12" d="M160.62,388.22c-3-8.39-5.5-15.33-7.79-22.36-.33-1.05.29-2.59.85-3.71q33.21-66.24,66.51-132.43c.29-.59.67-1.13,1.32-2.19l15.25,4.85Z"></path><path class="cls-20" d="M444,366.3l22.52-15.77c27.54,19.45,45.64,60.37,39.34,98.72l-26.36-4.57C482.25,412,470.69,386.05,444,366.3Z"></path><path class="cls-20" d="M318.9,423c-2.89,33.06,9,58.85,35.7,78.53-7.46,5.27-14.52,10.38-21.78,15.18-.78.51-3.12-.41-4.16-1.33q-29.84-26.25-35.76-65.62c-1.55-10.24-1.91-20.49.2-31.33Z"></path><path class="cls-20" d="M467.52,408.62c-14.75-5.51-29.21-12.05-44.32-16.3-26-7.31-52.68-9.4-79.61-5.17a9.11,9.11,0,0,1-1.94-.22,70.36,70.36,0,0,1,23.58-19.26c38.64-20.11,87-1.92,102.92,38.66a10,10,0,0,1,.33,1.46Z"></path><path class="cls-20" d="M320,416.53l-26.89-4.77c3.59-9.25,6.25-18.38,10.52-26.69,12.27-23.83,31-40.9,55.95-51,3.31-1.35,5.27-1.33,7.37,2,4,6.3,8.49,12.29,13.17,19C348.64,364.32,328.48,384.47,320,416.53Z"></path><path class="cls-20" d="M330.08,459.18q59.4,30,125.43,22c-11.16,16.49-40.17,31.14-69,25.92C360.36,502.38,333.93,480.23,330.08,459.18Z"></path><path class="cls-17" d="M275.74,669.05c-4.17-4.55-7.86-8.3-11.12-12.38-.63-.79,0-3.06.68-4.37q28.5-57.48,57.14-114.9c2.13-4.28,4.24-8.56,6.46-13l13.84,9.35C320.53,578.59,298.41,623.26,275.74,669.05Z"></path><path class="cls-21" d="M224,564.73c-2.34-6.34-4.61-12-6.45-17.83-.41-1.3.41-3.2,1.1-4.61q31.83-64.78,63.75-129.53c1.73-3.5,3.33-7.07,6.19-10.39-.35,3-.8,6-1,9-.77,9.44-1.42,18.89-2.21,28.33a13.22,13.22,0,0,1-1.21,4.72q-29,58.68-58.05,117.29A33.44,33.44,0,0,1,224,564.73Z"></path><path class="cls-17" d="M312.11,508.51l11.48,12L259.32,649.61c-3.08-5.71-5.8-10.45-8.17-15.36a5.45,5.45,0,0,1,.31-4.17q29.6-60,59.36-120A10.17,10.17,0,0,1,312.11,508.51Z"></path><path class="cls-17" d="M286.63,455c2.27,7.3,4.48,14.05,6.39,20.88a7.22,7.22,0,0,1-.65,4.65q-27.36,55.53-54.88,111c-.48,1-1.18,1.86-2.26,3.54-2.69-7.25-5.17-13.73-7.43-20.27-.31-.91.21-2.28.69-3.26q28.45-57.51,57-115A13.25,13.25,0,0,1,286.63,455Z"></path><path class="cls-17" d="M297.37,486.32c3.12,4.89,6.08,9.3,8.76,13.88a5,5,0,0,1,.3,4q-29.4,59.53-59,119c-.06.12-.26.16-1.23.7-2.5-6.5-5-12.88-7.34-19.32-.27-.76.32-1.94.75-2.81q28.25-57,56.56-114.07A8.34,8.34,0,0,1,297.37,486.32Z"></path><path class="cls-17" d="M491.33,233.47Q467.79,281,444.17,328.74L429,323.63c2.36-4.91,4.57-9.67,6.91-14.36,10.74-21.6,21.41-43.23,32.4-64.71a15.08,15.08,0,0,1,6.58-6c5-2.46,10.33-4.16,15.53-6.18Z"></path><path class="cls-21" d="M372.44,266.39c-6.14,12.47-12,24.39-17.88,36.29-5.1,10.29-10.06,20.65-15.45,30.78-1.64,3.09-4.27,5.76-6.81,8.24-6.89,6.73-14,13.25-21,19.85-1.2,1.12-2.43,2.21-3.65,3.31l-1.11-.85c2.32-4.81,4.62-9.63,7-14.42C326.69,322.88,340,296.21,353,269.42c1.65-3.39,3.36-4.82,7.14-4.18S367.71,266,372.44,266.39Z"></path><path class="cls-21" d="M460.89,244.67,450.38,265.8c-8.73,17.56-17.52,35.09-26.14,52.71-1.38,2.81-2.7,3.94-6,3.1-4-1-8.19-1.19-13-1.82.7-1.64,1.23-3.11,1.92-4.51,9.12-18.47,18.17-37,27.52-55.34a15,15,0,0,1,6.15-5.79C446.9,250.91,453.27,248.22,460.89,244.67Z"></path><path class="cls-22" d="M70.72,186.35c11.89-.18,16.33,2.94,19.87,13.34,3.31,9.75,6.16,19.66,9.5,29.4,1.08,3.17.21,4.59-2.72,5.55-2.68.89-5.26,2.07-7.88,3.1-6,2.36-5.93,2.34-7.77-4.12s-3.5-13.19-6-19.51c-3.16-8.13-8.35-14.39-18-15a.83.83,0,0,1-.48-.11l-6.92-6.22c2.38-1.79,4.54-4.54,7.2-5.16C62.34,186.47,67.43,186.61,70.72,186.35Z"></path><path class="cls-21" d="M347.33,331.81c5.11-10.33,9.74-19.66,14.35-29,5.3-10.74,10.75-21.42,15.82-32.28,1.59-3.39,3.59-4.52,7.22-4.45,4.43.09,8.89-.53,14.22-.91-2.24,4.63-4.13,8.62-6.09,12.58-7,14.17-14,28.38-21.17,42.45a11,11,0,0,1-5.21,4.6C360.59,327.28,354.5,329.24,347.33,331.81Z"></path><path class="cls-21" d="M378.48,321.52c2.64-5.38,5-10.25,7.4-15.09,6.41-13,12.7-26,19.37-38.81,1-1.95,3.58-3.6,5.78-4.3,5.15-1.65,10.51-2.64,16.55-4.09-6.26,12.76-12.16,24.83-18.1,36.87-3.38,6.86-6.64,13.8-10.35,20.47A8.07,8.07,0,0,1,394,320C389.14,320.81,384.17,321,378.48,321.52Z"></path><path class="cls-12" d="M383.71,540.92c1.62-9.14,3.13-17.73,4.75-26.89,7.16,0,14.09,0,21,.06a3.56,3.56,0,0,1,2.42,1.36c5.18,7.29,10.25,14.64,15.76,22.55C413,542.53,398.67,542.56,383.71,540.92Z"></path><path class="cls-12" d="M337,521.9c7.93-5.57,15.35-10.83,22.85-16a3.52,3.52,0,0,1,2.75-.08c6.34,2.41,12.63,4.93,19.37,7.59l-4.55,26.12C362.56,536.69,349.51,530.77,337,521.9Z"></path><path class="cls-12" d="M421,328.66c14.89,2.86,27.84,8.78,40.59,17.37-7.81,5.51-15.17,10.75-22.64,15.84-.73.5-2.26.26-3.23-.11-6.17-2.35-12.28-4.84-19.19-7.6C417.86,346.33,419.33,337.94,421,328.66Z"></path><path class="cls-12" d="M371.18,330.77c9.62-4.31,32.44-5.82,43.3-2.86-1.48,8.4-3,16.84-4.51,25.68-7.27,0-14.21.06-21.16-.07a4.07,4.07,0,0,1-2.75-1.59C381,345,376.15,337.87,371.18,330.77Z"></path><path class="cls-23" d="M350,752.94c1.9-19.6,3.7-38.23,5.53-57.14C369.89,707.59,370,735.29,350,752.94Z"></path><path class="cls-13" d="M303.49,373.05l-4.39,8.06-1.29-.7q1.94-4.21,3.86-8.45Z"></path><path class="cls-13" d="M296.69,383.38c.35.53.77.88.72,1.15s-.49.69-.75,1c-.25-.27-.69-.55-.68-.82S296.33,384,296.69,383.38Z"></path><path class="cls-13" d="M295.46,388.34l-.62.53-.58-.93c.26-.1.56-.34.77-.28S295.32,388.1,295.46,388.34Z"></path><path class="cls-20" d="M468.48,407.79c.06.41.11.82.17,1.23l-1.13-.4Z"></path><path class="cls-5" d="M490.74,605.31l-6.9,9.9C484.47,610.74,484.83,606.09,490.74,605.31Z"></path><path class="cls-24" d="M201.59,636c-9.12,1.71-18.27,2.59-26.82,5.36-5.22,1.68-10.78,5.34-13.94,9.74-10.16,14.1-23.77,17.11-39.63,14.58a5.48,5.48,0,0,1-3.67-3.34c-4.64-21,9.36-43.56,30.78-50.06C169.91,605.7,193.93,616.56,201.59,636Z"></path><path class="cls-24" d="M120.84,672.78h12.89c12.18,0,22.1-4.81,29.18-14.63,10-13.84,24.53-14.45,39.41-14.13,1.09,0,2.81,2.15,3.1,3.54,5.19,24.7-14.74,50.42-40.08,52-18.7,1.13-32.87-6.37-42.71-22.22a25.15,25.15,0,0,1-1.63-3.08A4.46,4.46,0,0,1,120.84,672.78Z"></path><path class="cls-16" d="M375.94,68.19c8.77-.06,13.57,6.56,10,14.5a33.82,33.82,0,0,1-7.2,9.94c-4.6,4.5-9.52,4.79-14,1.72-4.73-3.25-6.26-8.13-4.42-14C362.29,74.13,369.88,68.23,375.94,68.19Z"></path><path class="cls-15" d="M466.72,83.67c.58-6.13,4.75-11,11-14.18a11.58,11.58,0,0,1,13.09,1.26c3.13,2.46,4.56,5.37,3.28,9.54-1.9,6.16-5.31,11.37-10.93,14.18-2.81,1.4-7.16,1.35-10.21.26C469,93.3,466.59,89.57,466.72,83.67Z"></path><path class="cls-12" d="M43.62,85.4c0-8,7.33-16.23,14.74-17.13a12.17,12.17,0,0,1,11.77,5c2.75,3.55,1.4,7.22-.52,10.22A54.16,54.16,0,0,1,60.81,94c-3.17,2.94-7.29,3.16-11.13.92S43.4,89.54,43.62,85.4Z"></path><path class="cls-21" d="M263.57,87c-.46-8.62,3.64-14.15,10-18.17,3.52-2.24,7.26-2.17,10.22,1.45s1.31,7-1.26,9.76C277.59,85.33,271.1,86.84,263.57,87Z"></path><path class="cls-9" d="M169.48,79.8c-.49-6.3,1.93-11.07,7.09-13.88,1.85-1,5.85-1,6.92.17,1.46,1.68,2,5.28,1.27,7.51C183.16,78.46,177.21,80.61,169.48,79.8Z"></path><path class="cls-9" d="M169,86.76c-.78-4.42,2.38-4.53,5.85-4.45,5.22.11,8.45,2.46,8.55,6.37s-3.72,7.57-7.75,7.65C171.17,96.42,169,93.4,169,86.76Z"></path><path class="cls-9" d="M312.21,83c.79-6.73,7.47-14.27,14-14.87,2.23-.2,6,1,6.63,2.62.82,2-.11,5.53-1.58,7.37C328.07,82.06,318.8,84,312.21,83Z"></path></svg> 